# xmcd CD database file
#
# Track frame offsets:
#	150
#	14699
#	33566
#	47612
#	59677
#	77418
#	93311
#	108826
#	123387
#	142907
#	160969
#	173085
#	186179
#	201855
#	217086
#	233481
#	247627
#	266024
#	283291
#	300695
#	316892
#
# Disc length: 4419 seconds
#
# Revision: 0
# Processed by: cddbd v1.4PL0 Copyright (c) Steve Scherf et al.
# Submitted via: CDex 1.50
#
DISCID=23114115
DTITLE=Earl Thomas Conley - Favorite Cuts
DYEAR=2002
DGENRE=Country
TTITLE0=Fire and Smoke
TTITLE1=Somewhere Between Right and Wrong
TTITLE2=Heavenly Bodies
TTITLE3=I Have Loved You Girl
TTITLE4=Angel In Disguise
TTITLE5=Don't Make It Easy For Me
TTITLE6=Your Love's On the Line
TTITLE7=Holding Her and Loving You
TTITLE8=That was a Close One
TTITLE9=I Can't Win for Losing You
TTITLE10=Finally Friday
TTITLE11=Chance of Loving You'
TTITLE12=Love Don't Care (Whose Heart It Breaks)
TTITLE13=Nobody Falls Like a Fool
TTITLE14=Once in a Blue Moon
TTITLE15=Right From the Start
TTITLE16=What She Is
TTITLE17=Love Out Loud
TTITLE18=What I'd Say
TTITLE19=Happy Endings
TTITLE20=Silent Treatment
EXTD=YEAR: 2002
EXTT0=
EXTT1=
EXTT2=
EXTT3=
EXTT4=
EXTT5=
EXTT6=
EXTT7=
EXTT8=
EXTT9=
EXTT10=
EXTT11=
EXTT12=
EXTT13=
EXTT14=
EXTT15=
EXTT16=
EXTT17=
EXTT18=
EXTT19=
EXTT20=
PLAYORDER=
